<svg xmlns="http://www.w3.org/2000/svg" width="361" height="173" viewBox="0 0 361 173">
  <g id="Group_7683" data-name="Group 7683" transform="translate(-16 -361)">
    <rect id="Rectangle_2866" data-name="Rectangle 2866" width="361" height="173" transform="translate(16 361)" fill="#fff5eb"/>
    <g id="Group_7686" data-name="Group 7686" transform="translate(0 0.577)">
      <g id="Group_7685" data-name="Group 7685" transform="translate(-0.5 -2.501)">
        <g id="Group_4923" data-name="Group 4923" transform="translate(12 236.358)">
          <g id="Group_4922" data-name="Group 4922" transform="translate(137 151.626)">
            <g id="Ellipse_843" data-name="Ellipse 843" transform="translate(0 39.761)" fill="#fff" stroke="#48bf84" stroke-width="1">
              <circle cx="3.848" cy="3.848" r="3.848" stroke="none"/>
              <circle cx="3.848" cy="3.848" r="3.348" fill="none"/>
            </g>
            <g id="Group_4876" data-name="Group 4876" transform="translate(8.978 18.812)">
              <line id="Line_523" data-name="Line 523" x1="2.565" y2="2.565" fill="none" stroke="#48bf84" stroke-width="1"/>
              <line id="Line_524" data-name="Line 524" x2="2.565" y2="2.565" fill="none" stroke="#48bf84" stroke-width="1"/>
            </g>
            <g id="Group_4877" data-name="Group 4877" transform="translate(90.067 0)">
              <line id="Line_523-2" data-name="Line 523" x1="4.564" y2="4.564" fill="none" stroke="#48bf84" stroke-width="2"/>
              <line id="Line_524-2" data-name="Line 524" x2="4.564" y2="4.564" fill="none" stroke="#48bf84" stroke-width="2"/>
            </g>
            <g id="Ellipse_844" data-name="Ellipse 844" transform="translate(92.349 20.094)" fill="#fff" stroke="#48bf84" stroke-width="1">
              <circle cx="1.283" cy="1.283" r="1.283" stroke="none"/>
              <circle cx="1.283" cy="1.283" r="0.783" fill="none"/>
            </g>
          </g>
          <g id="noun_correct_1838076" transform="translate(153.03 140.566)">
            <path id="Path_2597" data-name="Path 2597" d="M76.687,40.376c0-.1-.009-.19-.014-.285a.437.437,0,0,0-.311-.41l-5.827-2.123q2.519-1.689,5.034-3.378a.434.434,0,0,0,.2-.48,36.258,36.258,0,0,0-3.915-9.645.44.44,0,0,0-.48-.195l-5.738.774,2.721-5.019a.439.439,0,0,0-.066-.515,36.865,36.865,0,0,0-8.015-6.873.415.415,0,0,0-.429,0l-4.557,3.236q.036-2.748.073-5.5a.437.437,0,0,0-.312-.41A36.54,36.54,0,0,0,44.7,7.088a.416.416,0,0,0-.367.211q-1.236,2.428-2.469,4.858Q40.627,9.727,39.393,7.3a.415.415,0,0,0-.367-.211A36.568,36.568,0,0,0,28.677,9.558a.436.436,0,0,0-.312.41q.036,2.747.072,5.5l-4.558-3.236a.416.416,0,0,0-.429,0A36.967,36.967,0,0,0,15.437,19.1a.437.437,0,0,0-.066.515q1.36,2.51,2.72,5.019l-5.738-.774a.44.44,0,0,0-.48.195A36.338,36.338,0,0,0,7.958,33.7a.435.435,0,0,0,.195.48l5.034,3.378L7.36,39.681a.439.439,0,0,0-.312.41,36.932,36.932,0,0,0,.993,10.187.434.434,0,0,0,.41.312l6.4.691-4.462,4.906a.439.439,0,0,0-.066.514A36.479,36.479,0,0,0,15.9,65.076a.415.415,0,0,0,.413.11l6.4-2.524q-.876,3.361-1.751,6.719a.437.437,0,0,0,.195.48A36.82,36.82,0,0,0,29.9,74.572a.413.413,0,0,0,.413-.11q2.319-2.689,4.639-5.378.806,3.47,1.612,6.936a.416.416,0,0,0,.3.3,36.728,36.728,0,0,0,10.008,0,.415.415,0,0,0,.3-.3q.8-3.468,1.612-6.936,2.317,2.686,4.637,5.377a.413.413,0,0,0,.413.11,36.609,36.609,0,0,0,8.743-4.712.437.437,0,0,0,.195-.48q-.876-3.361-1.752-6.719,3.2,1.26,6.4,2.524a.409.409,0,0,0,.413-.11A36.809,36.809,0,0,0,73.392,56.7a.438.438,0,0,0-.066-.514l-4.462-4.906,6.4-.691a.431.431,0,0,0,.409-.312A36.547,36.547,0,0,0,76.687,40.376Zm-45.22,13.8L21.282,40.821l3.183-2.427,7.875,10.328L60.176,29.6l2.265,3.3Z" transform="translate(-7.015 -7.086)" fill="#48bf84"/>
          </g>
        </g>
        <text id="Subject_Unlocked" data-name="Subject Unlocked" transform="translate(106.5 474)" fill="#3a3752" stroke="#3a3752" stroke-width="0.5" font-size="20" font-family="Comfortaa-Medium, Comfortaa" font-weight="500"><tspan x="0" y="0">Subject Unlocked</tspan></text>
      </g>
      <g id="Group_7662" data-name="Group 7662" transform="translate(4362.5 -11965.377)">
        <rect id="Rectangle_8" data-name="Rectangle 8" width="344" height="34" rx="8" transform="translate(-4337.5 12449.952)" fill="rgba(253,117,94,0.1)"/>
        <text id="Note:_You_can_unlock_only_one_subject" data-name="Note: You can unlock only one subject" transform="translate(-4165.5 12470.952)" fill="#fd755e" font-size="12" font-family="Comfortaa-Bold, Comfortaa" font-weight="700" letter-spacing="0.033em"><tspan x="-125" y="0">Note: You can unlock only one subject</tspan></text>
      </g>
    </g>
  </g>
</svg>
