<svg id="noun_done_1606832" xmlns="http://www.w3.org/2000/svg" width="23.068" height="23.068" viewBox="0 0 23.068 23.068">
  <g id="Group_110" data-name="Group 110" transform="translate(0 0)">
    <g id="Group_107" data-name="Group 107">
      <g id="Group_106" data-name="Group 106">
        <path id="Path_430" data-name="Path 430" d="M21.534,33.068a2.665,2.665,0,0,1-1.728-1.015,2.7,2.7,0,0,0-.9-.7,2.763,2.763,0,0,0-1.181.151,2.592,2.592,0,0,1-1.959.015,2.62,2.62,0,0,1-.968-1.713,2.718,2.718,0,0,0-.447-1.084,2.709,2.709,0,0,0-1.088-.451,2.617,2.617,0,0,1-1.713-.969,2.587,2.587,0,0,1,.015-1.957,2.765,2.765,0,0,0,.152-1.178,2.688,2.688,0,0,0-.7-.906A2.665,2.665,0,0,1,10,21.534a2.665,2.665,0,0,1,1.015-1.728,2.7,2.7,0,0,0,.7-.9,2.76,2.76,0,0,0-.151-1.181,2.587,2.587,0,0,1-.014-1.959,2.618,2.618,0,0,1,1.713-.968,2.717,2.717,0,0,0,1.084-.447A2.708,2.708,0,0,0,14.8,13.26a2.617,2.617,0,0,1,.969-1.713,2.588,2.588,0,0,1,1.957.015,2.764,2.764,0,0,0,1.178.152,2.688,2.688,0,0,0,.906-.7A2.665,2.665,0,0,1,21.534,10a2.666,2.666,0,0,1,1.729,1.015,2.7,2.7,0,0,0,.9.7,2.776,2.776,0,0,0,1.182-.151,2.584,2.584,0,0,1,1.959-.014,2.618,2.618,0,0,1,.968,1.712,2.723,2.723,0,0,0,.447,1.084,2.709,2.709,0,0,0,1.088.451,2.619,2.619,0,0,1,1.713.969,2.587,2.587,0,0,1-.015,1.957,2.768,2.768,0,0,0-.152,1.178,2.688,2.688,0,0,0,.7.906,2.665,2.665,0,0,1,1.015,1.728,2.665,2.665,0,0,1-1.015,1.728,2.7,2.7,0,0,0-.7.9,2.764,2.764,0,0,0,.151,1.181,2.589,2.589,0,0,1,.015,1.957,2.619,2.619,0,0,1-1.713.969,2.723,2.723,0,0,0-1.084.447,2.712,2.712,0,0,0-.451,1.088,2.619,2.619,0,0,1-.969,1.713,2.587,2.587,0,0,1-1.957-.015,2.765,2.765,0,0,0-1.179-.152,2.689,2.689,0,0,0-.905.7A2.665,2.665,0,0,1,21.534,33.068Zm-2.852-2.663a1.752,1.752,0,0,1,.46.057,3.217,3.217,0,0,1,1.312.934c.373.368.758.749,1.08.749s.707-.381,1.08-.749a3.215,3.215,0,0,1,1.315-.934,3.305,3.305,0,0,1,1.647.15c.495.128,1.007.259,1.266.109s.4-.663.54-1.158a3.256,3.256,0,0,1,.688-1.5,3.257,3.257,0,0,1,1.493-.685c.495-.136,1.006-.276,1.157-.539h0c.15-.26.018-.771-.109-1.266a3.31,3.31,0,0,1-.149-1.65,3.217,3.217,0,0,1,.934-1.312c.368-.373.749-.758.749-1.08s-.381-.707-.749-1.08a3.214,3.214,0,0,1-.934-1.315,3.31,3.31,0,0,1,.15-1.647c.128-.495.26-1.007.109-1.266s-.663-.4-1.158-.54a3.258,3.258,0,0,1-1.5-.688,3.257,3.257,0,0,1-.685-1.493c-.136-.494-.276-1.006-.538-1.157s-.772-.019-1.268.109a3.317,3.317,0,0,1-1.65.149,3.217,3.217,0,0,1-1.312-.933c-.373-.368-.758-.749-1.08-.749s-.707.381-1.08.749a3.216,3.216,0,0,1-1.315.934,3.312,3.312,0,0,1-1.647-.15c-.495-.128-1.007-.26-1.266-.109s-.4.663-.54,1.158A3.258,3.258,0,0,1,15,15a3.26,3.26,0,0,1-1.493.685c-.495.135-1.006.276-1.157.538s-.019.773.109,1.268a3.313,3.313,0,0,1,.149,1.65,3.218,3.218,0,0,1-.933,1.312c-.368.373-.749.758-.749,1.08s.381.707.749,1.08a3.216,3.216,0,0,1,.934,1.315,3.312,3.312,0,0,1-.15,1.647c-.128.495-.26,1.007-.109,1.266s.663.4,1.158.54a3.256,3.256,0,0,1,1.5.688,3.26,3.26,0,0,1,.685,1.493c.135.495.276,1.006.538,1.157s.773.019,1.268-.109A4.9,4.9,0,0,1,18.682,30.406Z" transform="translate(-10 -10)" fill="#fff"/>
      </g>
    </g>
    <g id="Group_109" data-name="Group 109" transform="translate(6.009 7.724)">
      <g id="Group_108" data-name="Group 108">
        <path id="Path_431" data-name="Path 431" d="M26.915,34.362a.461.461,0,0,1-.326-.135l-3.43-3.43a.461.461,0,1,1,.652-.652l3.1,3.1,6.372-6.372a.461.461,0,0,1,.652.652l-6.7,6.7A.461.461,0,0,1,26.915,34.362Z" transform="translate(-23.024 -26.741)" fill="#fff"/>
      </g>
    </g>
  </g>
</svg>
